<?xml version="1.0" encoding="UTF-8" standalone="no"?>
<svg
   xmlns:dc="http://purl.org/dc/elements/1.1/"
   xmlns:cc="http://creativecommons.org/ns#"
   xmlns:rdf="http://www.w3.org/1999/02/22-rdf-syntax-ns#"
   xmlns:svg="http://www.w3.org/2000/svg"
   xmlns="http://www.w3.org/2000/svg"
   xmlns:xlink="http://www.w3.org/1999/xlink"
   xmlns:sodipodi="http://sodipodi.sourceforge.net/DTD/sodipodi-0.dtd"
   xmlns:inkscape="http://www.inkscape.org/namespaces/inkscape"
   version="1.1"
   id="svg2"
   width="50"
   height="50"
   viewBox="0 0 50 50"
   sodipodi:docname="LogoKaori.svg"
   inkscape:version="1.0.2-2 (e86c870879, 2021-01-15)">
  <metadata
     id="metadata8">
    <rdf:RDF>
      <cc:Work
         rdf:about="">
        <dc:format>image/svg+xml</dc:format>
        <dc:type
           rdf:resource="http://purl.org/dc/dcmitype/StillImage" />
        <dc:title></dc:title>
      </cc:Work>
    </rdf:RDF>
  </metadata>
  <defs
     id="defs6">
    <linearGradient
       inkscape:collect="always"
       xlink:href="#linearGradient892"
       id="linearGradient1418"
       gradientUnits="userSpaceOnUse"
       x1="-330"
       y1="-520"
       x2="220"
       y2="-420" />
    <linearGradient
       inkscape:collect="always"
       id="linearGradient892">
      <stop
         style="stop-color:#ff8d0f;stop-opacity:1;"
         offset="0"
         id="stop888" />
      <stop
         style="stop-color:#ff8d0f;stop-opacity:0;"
         offset="1"
         id="stop890" />
    </linearGradient>
    <linearGradient
       inkscape:collect="always"
       xlink:href="#linearGradient892"
       id="linearGradient927"
       gradientUnits="userSpaceOnUse"
       x1="-330"
       y1="-520"
       x2="220"
       y2="-420" />
    <linearGradient
       inkscape:collect="always"
       xlink:href="#linearGradient892"
       id="linearGradient929"
       gradientUnits="userSpaceOnUse"
       x1="-330"
       y1="-520"
       x2="220"
       y2="-420" />
    <linearGradient
       inkscape:collect="always"
       xlink:href="#linearGradient892"
       id="linearGradient931"
       gradientUnits="userSpaceOnUse"
       x1="-330"
       y1="-520"
       x2="220"
       y2="-420" />
    <linearGradient
       inkscape:collect="always"
       xlink:href="#linearGradient892"
       id="linearGradient933"
       gradientUnits="userSpaceOnUse"
       x1="-330"
       y1="-520"
       x2="220"
       y2="-420" />
    <linearGradient
       inkscape:collect="always"
       xlink:href="#linearGradient892"
       id="linearGradient935"
       gradientUnits="userSpaceOnUse"
       x1="-330"
       y1="-520"
       x2="220"
       y2="-420" />
    <linearGradient
       inkscape:collect="always"
       xlink:href="#linearGradient892"
       id="linearGradient937"
       gradientUnits="userSpaceOnUse"
       x1="-330"
       y1="-520"
       x2="220"
       y2="-420" />
    <linearGradient
       inkscape:collect="always"
       xlink:href="#linearGradient892"
       id="linearGradient939"
       gradientUnits="userSpaceOnUse"
       x1="-330"
       y1="-520"
       x2="220"
       y2="-420" />
    <linearGradient
       inkscape:collect="always"
       xlink:href="#linearGradient892"
       id="linearGradient941"
       gradientUnits="userSpaceOnUse"
       x1="-330"
       y1="-520"
       x2="220"
       y2="-420" />
    <linearGradient
       inkscape:collect="always"
       xlink:href="#linearGradient892"
       id="linearGradient943"
       gradientUnits="userSpaceOnUse"
       x1="-330"
       y1="-520"
       x2="220"
       y2="-420" />
    <linearGradient
       inkscape:collect="always"
       xlink:href="#linearGradient892"
       id="linearGradient945"
       gradientUnits="userSpaceOnUse"
       x1="-330"
       y1="-520"
       x2="220"
       y2="-420" />
    <linearGradient
       inkscape:collect="always"
       xlink:href="#linearGradient892"
       id="linearGradient947"
       gradientUnits="userSpaceOnUse"
       x1="-330"
       y1="-520"
       x2="220"
       y2="-420" />
    <linearGradient
       inkscape:collect="always"
       xlink:href="#linearGradient892"
       id="linearGradient949"
       gradientUnits="userSpaceOnUse"
       x1="-330"
       y1="-520"
       x2="220"
       y2="-420" />
  </defs>
  <sodipodi:namedview
     pagecolor="#ffffff"
     bordercolor="#666666"
     borderopacity="1"
     objecttolerance="10"
     gridtolerance="10"
     guidetolerance="10"
     inkscape:pageopacity="0"
     inkscape:pageshadow="2"
     inkscape:window-width="1920"
     inkscape:window-height="1057"
     id="namedview4"
     showgrid="true"
     inkscape:zoom="10.39447"
     inkscape:cx="32.880519"
     inkscape:cy="37.394531"
     inkscape:window-x="-8"
     inkscape:window-y="-8"
     inkscape:window-maximized="1"
     inkscape:current-layer="g10">
    <inkscape:grid
       type="xygrid"
       id="grid965" />
  </sodipodi:namedview>
  <g
     inkscape:groupmode="layer"
     inkscape:label="Image"
     id="g10">
    <g
       id="g959-8-1"
       transform="matrix(0.12301875,0,0,0.12301875,55.263261,79.99889)"
       inkscape:export-xdpi="96"
       inkscape:export-ydpi="96">
      <path
         style="fill:url(#linearGradient927);fill-opacity:1;stroke:none;stroke-width:1px;stroke-linecap:butt;stroke-linejoin:miter;stroke-opacity:1"
         d="m -430,-420 c 0,0 7.10769,-8.38824 17.10769,-13.38824 10,-5 25.11967,-8.66378 25.11967,-8.66378 0,0 22.77264,14.77264 32.77264,17.05202 4.87496,1.11119 59.78481,0.95696 80,5 25,5 40,35 40,35 0,0 -39.82008,12.64105 -90,10 -57,-3 -80,-20 -80,-20 0,0 -2.27938,-4.64933 -12.27938,-14.64933 C -427.27938,-419.64933 -430,-420 -430,-420 Z"
         id="path862-3-2"
         sodipodi:nodetypes="cscsscscsc" />
      <path
         style="fill:url(#linearGradient929);fill-opacity:1;stroke:none;stroke-width:1px;stroke-linecap:butt;stroke-linejoin:miter;stroke-opacity:1"
         d="m -378,-447 49,-24 c 0,0 17,4 25,8 8,4 30,17 30,17 0,0 3.08452,3.08452 6,6 1,1 6,1 9,1 6.08276,0 21,-7 22,-8 1,-1 21,21 23,22 2,1 21,22 21,22 l -32,16 c 0,0 -2,-8 -8,-16 -6,-8 -12,-19 -25,-23 -13,-4 -21,-6 -29,-6 -8,0 -65,-3 -65,-3 z"
         id="path864-3-2"
         sodipodi:nodetypes="ccscssssccssscc" />
      <path
         style="fill:url(#linearGradient931);fill-opacity:1;stroke:none;stroke-width:1px;stroke-linecap:butt;stroke-linejoin:miter;stroke-opacity:1"
         d="m -318,-478 c 0,0 9,-4 14,-5 5,-1 19,-3 19,-3 l 22,33 c 0,0 2,3 4,1 2,-2 1,-5 1,-5 l -19,-29 c 0,0 16,1 23,5 7,4 18,14 18,14 0,0 4,2 5,1 1,-1 -2,-14 -4,-18 -2,-4 -9,-18 -9,-18 0,0 16,5 23,8 7,3 15,11 15,11 0,0 2,2 4,0 2,-2 0,-7 0,-7 0,0 -6,-11 -9,-15 -3,-4 -6,-7 -6,-7 0,0 13,4 17,6 4,2 13,9 13,9 0,0 3,2 4,0 1,-2 0,-5 0,-5 0,0 -12,-10 -19,-12 -7,-2 -23,-6 -23,-6 0,0 -3,-4 -9,-8 -6,-4 -11,-7 -11,-7 0,0 8,-6 12,-11 4,-5 10,-11 10,-11 0,0 1,-2 9,-3 8,-1 13,2 13,2 0,0 24,15 30,23 6,8 7,8 7,8 0,0 4,9 12,15 8,6 13,12 26,12 13,0 24,0 29,-5 5,-5 11,-21 12,-27 1,-6 2,-15 0,-20 -2,-5 -5,-11 -14,-13 -9,-2 -21,2 -21,2 0,0 6,-7 14,-8 8,-1 14,-1 20,4 6,5 7,16 7,16 v 24 c 0,0 4,1 5,7 1,6 1,9 1,9 0,0 -19,31 -23,36 -4,5 -10,10 -13,17 -3,7 -5,21 -5,21 0,0 -21,-7 -31,-17 -10,-10 -21,-23 -24,-28 -3,-5 -2,-9 -7,-10 -5,-1 -9,3 -9,3 0,0 -20,10 -31,17 -11,7 -23,15 -28,18 -5,3 -12,7 -16,6 -4,-1 -8,-5 -8,-5 0,0 -10,-10 -23,-15 -13,-5 -27,-10 -27,-10 z"
         id="path866-8-0" />
      <path
         style="fill:url(#linearGradient933);fill-opacity:1;stroke:none;stroke-width:1px;stroke-linecap:butt;stroke-linejoin:miter;stroke-opacity:1"
         d="m -300,-490 8,-6 3,5 z"
         id="path868-5-5" />
      <path
         style="fill:url(#linearGradient935);fill-opacity:1;stroke:none;stroke-width:1px;stroke-linecap:butt;stroke-linejoin:miter;stroke-opacity:1"
         d="m -272,-510 9,-8 6,8 c 0,0 -15,0 -15,0 z"
         id="path870-5-1" />
      <path
         style="fill:url(#linearGradient937);fill-opacity:1;stroke:none;stroke-width:1px;stroke-linecap:butt;stroke-linejoin:miter;stroke-opacity:1"
         d="m -256,-524 7,-6 11,7 z"
         id="path872-1-3" />
      <path
         style="fill:url(#linearGradient939);fill-opacity:1;stroke:none;stroke-width:1px;stroke-linecap:butt;stroke-linejoin:miter;stroke-opacity:1"
         d="m -255,-518 c 5,1 28,4 28,4 l 13,16 c 0,0 -12,-7 -20,-8 -8,-1 -14,-3 -14,-3 z"
         id="path874-0-5" />
      <path
         style="fill:url(#linearGradient941);fill-opacity:1;stroke:none;stroke-width:1px;stroke-linecap:butt;stroke-linejoin:miter;stroke-opacity:1"
         d="m -287,-499 5,-4 h 30 l 12,24 c 0,0 -8,-8 -19,-10 -11,-2 -22,-2 -22,-2 z"
         id="path876-1-5" />
      <path
         style="fill:url(#linearGradient943);fill-opacity:1;stroke:none;stroke-width:1px;stroke-linecap:butt;stroke-linejoin:miter;stroke-opacity:1"
         d="m -155,-523 c 0,0 15,-5 20,-12 5,-7 9,-11 10,-16 1,-5 1,-5 1,-5 0,0 6,-5 13,-5 7,0 16,1 19,5 3,4 4,12 2,22 -2,10 -6,26 -16,28 -10,2 -24,3 -29,0 -5,-3 -15,-9 -17,-12 -2,-3 -3,-5 -3,-5 z"
         id="path878-6-0" />
      <path
         style="fill:url(#linearGradient945);fill-opacity:1;stroke:none;stroke-width:1px;stroke-linecap:butt;stroke-linejoin:miter;stroke-opacity:1"
         d="m -69,-499 c 0,0 6,12 7,24 1,12 3,20 3,20 0,0 -9,8 -19,11 -10,3 -26,8 -26,8 0,0 0,-12 6,-20 6,-8 7,-12 12,-16 5,-4 9,-13 11,-16 2,-3 6,-11 6,-11 z"
         id="path880-0-4" />
      <path
         style="fill:url(#linearGradient947);fill-opacity:1;stroke:none;stroke-width:1px;stroke-linecap:butt;stroke-linejoin:miter;stroke-opacity:1"
         d="m -437,-414 c 0,0 17,12 19,17 2,5 3,6 5,8 2,2 10,12 35,17 25,5 52,11 94,7 42,-4 69,-14 88,-26 19,-12 52,-25 63,-28 11,-3 37,-10 45,-12 8,-2 25,-9 28,-11 3,-2 7,-6 7,-6 0,0 5,14 4,24 -1,10 -1,19 -1,19 0,0 -10,10 -16,13 -6,3 -23,8 -36,10 -13,2 -34,5 -48,9 -14,4 -21,4 -46,14 -25,10 -10,6 -26,12 -16,6 -42,11 -69,10 -27,-1 -68,-4 -89,-13 -21,-9 -46,-23 -51,-28 -5,-5 -10,-6 -12,-10 -2,-4 0,-15 1,-18 1,-3 5,-8 5,-8 z"
         id="path882-6-4" />
      <path
         style="fill:url(#linearGradient949);fill-opacity:1;stroke:none;stroke-width:1px;stroke-linecap:butt;stroke-linejoin:miter;stroke-opacity:1"
         d="m -223,-455 13,-9 47,46 -17,9 z"
         id="path884-8-1" />
      <path
         style="fill:url(#linearGradient1418);fill-opacity:1;stroke:none;stroke-width:1px;stroke-linecap:butt;stroke-linejoin:miter;stroke-opacity:1"
         d="m -196,-472 17,-9 c 0,0 11,20 18,26 7,6 17,16 21,18 4,2 13,7 13,7 0,0 -9,1 -12,2 -3,1 -9,4 -9,4 z"
         id="path886-3-8" />
    </g>
    <path
       style="fill:none;stroke:none;stroke-width:1px;stroke-linecap:butt;stroke-linejoin:miter;stroke-opacity:1;fill-opacity:1"
       d="M 0,0 H 50 V 50 H 0 Z"
       id="path967"
       inkscape:export-xdpi="96"
       inkscape:export-ydpi="96" />
  </g>
</svg>
